HIERARCHY
ROOT Hips
{
	OFFSET 0.000000 0.000000 0.000000
	CHANNELS 6 Xposition Yposition Zposition Xrotation Yrotation Zrotation
	JOINT LeftUpLeg_virtual
	{
		OFFSET 0.000000 0.000000 0.000000
		CHANNELS 3 Xrotation Yrotation Zrotation
		JOINT LeftUpLeg
		{
			OFFSET 15.427100 -6.655098 0.678600
			CHANNELS 3 Xrotation Yrotation Zrotation
			JOINT LeftLeg
			{
				OFFSET 4.081073 -39.591068 13.024000
				CHANNELS 3 Xrotation Yrotation Zrotation
				JOINT LeftFoot
				{
					OFFSET -4.081074 -37.707932 -15.979700
					CHANNELS 3 Xrotation Yrotation Zrotation
					JOINT LeftToeBase
					{
						OFFSET 5.346399 -15.068900 20.645000
						CHANNELS 3 Xrotation Yrotation Zrotation
						JOINT LeftToe_End
						{
							OFFSET 2.754700 0.931300 11.300900
							CHANNELS 3 Xrotation Yrotation Zrotation
							End Site
							{
								OFFSET 0 0 0
							}
						}
					}
				}
			}
		}
	}
	JOINT RightUpLeg_virtual
	{
		OFFSET 0.000000 0.000000 0.000000
		CHANNELS 3 Xrotation Yrotation Zrotation
		JOINT RightUpLeg
		{
			OFFSET -15.569500 -6.655098 0.678600
			CHANNELS 3 Xrotation Yrotation Zrotation
			JOINT RightLeg
			{
				OFFSET -4.081825 -39.591045 13.023800
				CHANNELS 3 Xrotation Yrotation Zrotation
				JOINT RightFoot
				{
					OFFSET 4.081824 -37.707954 -15.979600
					CHANNELS 3 Xrotation Yrotation Zrotation
					JOINT RightToeBase
					{
						OFFSET -5.346400 -15.068900 20.645000
						CHANNELS 3 Xrotation Yrotation Zrotation
						JOINT RightToe_End
						{
							OFFSET -2.754700 0.931300 11.300900
							CHANNELS 3 Xrotation Yrotation Zrotation
							End Site
							{
								OFFSET 0 0 0
							}
						}
					}
				}
			}
		}
	}
	JOINT Spine_virtual
	{
		OFFSET 0.000000 0.000000 0.000000
		CHANNELS 3 Xrotation Yrotation Zrotation
		JOINT Spine
		{
			OFFSET -0.279200 12.230698 -2.892100
			CHANNELS 3 Xrotation Yrotation Zrotation
			JOINT Spine1
			{
				OFFSET -0.232667 10.192268 -1.242267
				CHANNELS 3 Xrotation Yrotation Zrotation
				JOINT Spine1_split
				{
					OFFSET -0.232667 10.192268 -1.242267
					CHANNELS 3 Xrotation Yrotation Zrotation
					JOINT Spine2
					{
						OFFSET -0.232667 10.192268 -1.242267
						CHANNELS 3 Xrotation Yrotation Zrotation
						JOINT Neck_virtual
						{
							OFFSET 0.000000 0.000000 0.000000
							CHANNELS 3 Xrotation Yrotation Zrotation
							JOINT Neck
							{
								OFFSET -0.418800 17.814194 8.416900
								CHANNELS 3 Xrotation Yrotation Zrotation
								JOINT Head
								{
									OFFSET 0.000000 7.031097 3.806800
									CHANNELS 3 Xrotation Yrotation Zrotation
									JOINT HeadTop_End
									{
										OFFSET 0.000000 24.646606 12.978600
										CHANNELS 3 Xrotation Yrotation Zrotation
										End Site
										{
											OFFSET 0 0 0
										}
									}
								}
							}
						}
						JOINT LeftShoulder_virtual
						{
							OFFSET 0.000000 0.000000 0.000000
							CHANNELS 3 Xrotation Yrotation Zrotation
							JOINT LeftShoulder
							{
								OFFSET 8.476499 7.247704 -3.868750
								CHANNELS 3 Xrotation Yrotation Zrotation
								JOINT LeftShoulder_split
								{
									OFFSET 8.476499 7.247704 -3.868750
									CHANNELS 3 Xrotation Yrotation Zrotation
									JOINT LeftArm
									{
										OFFSET 9.308998 -2.777710 0.208600
										CHANNELS 3 Xrotation Yrotation Zrotation
										JOINT LeftForeArm
										{
											OFFSET 29.972298 0.000000 0.000000
											CHANNELS 3 Xrotation Yrotation Zrotation
											JOINT LeftHand
											{
												OFFSET 26.026505 0.000000 0.000000
												CHANNELS 3 Xrotation Yrotation Zrotation
												End Site
												{
													OFFSET 0 0 0
												}
											}
										}
									}
								}
							}
						}
						JOINT RightShoulder_virtual
						{
							OFFSET 0.000000 0.000000 0.000000
							CHANNELS 3 Xrotation Yrotation Zrotation
							JOINT RightShoulder
							{
								OFFSET -7.570500 7.247704 -3.868750
								CHANNELS 3 Xrotation Yrotation Zrotation
								JOINT RightShoulder_split
								{
									OFFSET -7.570500 7.247704 -3.868750
									CHANNELS 3 Xrotation Yrotation Zrotation
									JOINT RightArm
									{
										OFFSET -9.308998 -2.777710 0.208500
										CHANNELS 3 Xrotation Yrotation Zrotation
										JOINT RightForeArm
										{
											OFFSET -29.972300 0.000000 0.000000
											CHANNELS 3 Xrotation Yrotation Zrotation
											JOINT RightHand
											{
												OFFSET -26.026505 0.000000 0.000000
												CHANNELS 3 Xrotation Yrotation Zrotation
												End Site
												{
													OFFSET 0 0 0
												}
											}
										}
									}
								}
							}
						}
					}
				}
			}
		}
	}
}
MOTION
Frames: 5
Frame Time: 0.03333333
17.086800 46.808655 -49.251648 0.000000 0.000000 0.000000 49.605219 -28.883487 15.909739 -43.449193 -1.505312 -0.709399 101.435925 -6.949708 0.494466 -11.394878 -8.547082 -4.021606 30.856609 -39.049308 -50.418428 0.000000 0.000000 0.000000 49.605219 -28.883487 15.909739 -109.270958 -6.792168 -24.094742 105.352068 -11.670843 5.907763 -23.055664 -8.686104 6.222044 -10.720142 -0.000002 -0.000000 0.000000 0.000000 0.000000 49.605219 -28.883487 15.909739 30.297746 9.379645 4.765579 6.852554 2.109582 1.261716 0.000000 0.000000 0.000000 0.000000 0.000000 0.000000 6.827503 2.179067 1.278342 -8.363030 -4.563618 1.740601 -21.240579 -18.756125 -6.620609 0.000000 0.000000 0.000000 6.827503 2.179067 1.278342 5.608896 -23.469908 -9.113342 0.000000 0.000000 0.000000 -29.183192 -12.430054 -40.885410 -0.000009 -37.552619 0.000010 0.000000 0.000000 0.000000 6.827503 2.179067 1.278342 -0.559070 30.137189 14.434189 0.000000 0.000000 0.000000 -44.135781 50.708728 11.921785 -0.000000 9.608859 -0.000009 0.000000 0.000000 0.000000 
17.332684 47.217766 -48.676735 0.000000 0.000000 0.000000 48.794694 -30.210125 15.989963 -46.813232 -2.426200 0.776495 103.882663 -6.261673 -0.212944 -9.644724 -7.621864 -3.763511 21.481862 -36.106156 -64.387995 0.000000 0.000000 0.000000 48.794694 -30.210125 15.989963 -107.144221 -6.853152 -23.412012 104.472183 -11.097371 5.914089 -23.258235 -8.846949 6.483193 -10.407076 -0.000016 -0.000004 0.000000 0.000000 0.000000 48.794694 -30.210125 15.989963 30.377676 9.386441 4.140570 6.860048 2.066864 1.129953 0.000000 0.000000 0.000000 0.000000 0.000000 0.000000 6.835854 2.135324 1.146297 -7.949793 -4.235514 1.372948 -21.131454 -17.422406 -7.101419 0.000000 0.000000 0.000000 6.835854 2.135324 1.146297 5.673077 -23.734086 -9.066826 0.000000 0.000000 0.000000 -27.862339 -10.438784 -41.186457 -0.000023 -38.893457 -0.000005 0.000000 0.000000 0.000000 6.835854 2.135324 1.146297 -0.454810 29.350983 14.140355 0.000000 0.000000 0.000000 -42.011927 48.862740 12.344918 0.000002 14.620230 -0.000017 0.000000 0.000000 0.000000 
17.541872 47.708702 -47.842293 0.000000 0.000000 0.000000 47.985422 -31.564466 16.101901 -50.702168 -3.449741 2.139368 106.002460 -5.984725 -0.581000 -7.184061 -6.056605 -4.506459 34.468744 -42.969871 -46.864339 0.000000 0.000000 0.000000 47.985422 -31.564466 16.101901 -104.545929 -6.536247 -23.002866 103.449915 -10.202966 6.057682 -23.402171 -9.075603 7.306836 -10.060355 -0.000031 -0.000009 0.000000 0.000000 0.000000 47.985422 -31.564466 16.101901 30.556583 9.530651 3.345717 6.900531 2.048716 0.955044 0.000000 0.000000 0.000000 0.000000 0.000000 0.000000 6.876920 2.117284 0.970882 -7.571712 -3.834393 0.935134 -20.880416 -15.870595 -7.421777 0.000000 0.000000 0.000000 6.876920 2.117284 0.970882 5.697512 -23.899192 -8.949576 0.000000 0.000000 0.000000 -27.065924 -8.692580 -41.259841 0.000010 -40.071610 0.000008 0.000000 0.000000 0.000000 6.876920 2.117284 0.970882 -0.244505 28.311472 13.397244 0.000000 0.000000 0.000000 -39.815905 48.075263 12.700978 -0.000008 18.268898 0.000010 0.000000 0.000000 0.000000 
17.754051 48.386436 -46.658646 0.000000 0.000000 0.000000 46.916091 -32.976051 16.308574 -54.623611 -3.667262 2.290281 107.937561 -5.853106 0.365701 -5.009006 -4.745963 -6.100872 -83.855223 -29.359319 9.329980 0.000000 0.000000 0.000000 46.916091 -32.976051 16.308574 -101.205959 -5.827128 -22.611283 102.165894 -8.983943 6.217804 -23.788531 -9.600075 8.229435 -9.529913 0.000049 -0.000008 0.000000 0.000000 0.000000 46.916091 -32.976051 16.308574 31.050149 9.716388 2.263881 6.973901 2.045120 0.742951 0.000000 0.000000 0.000000 0.000000 0.000000 0.000000 6.951631 2.112848 0.758488 -7.147398 -3.347712 0.366292 -20.800948 -14.109166 -7.588874 0.000000 0.000000 0.000000 6.951631 2.112848 0.758488 5.880278 -24.606311 -8.861677 0.000000 0.000000 0.000000 -26.458076 -6.906708 -40.061573 -0.000028 -41.627431 -0.000012 0.000000 0.000000 0.000000 6.951631 2.112848 0.758488 0.069421 27.515624 12.075452 0.000000 0.000000 0.000000 -38.169132 47.324564 12.915024 -0.000004 21.820982 0.000019 0.000000 0.000000 0.000000 
17.856565 49.321419 -45.071938 0.000000 0.000000 0.000000 45.925454 -34.329747 16.542735 -58.952879 -3.356351 2.050309 110.086318 -4.941390 2.206149 -4.339965 -3.372540 -6.778992 -88.285891 -24.306813 -2.875550 0.000000 0.000000 0.000000 45.925454 -34.329747 16.542735 -97.081085 -4.978932 -22.064303 100.414409 -7.241735 6.518143 -24.605603 -10.790002 9.099704 -8.882326 -0.000001 0.000004 0.000000 0.000000 0.000000 45.925454 -34.329747 16.542735 31.551229 9.922036 1.071975 7.073840 2.060562 0.500877 0.000000 0.000000 0.000000 0.000000 0.000000 0.000000 7.052990 2.127539 0.515821 -6.700983 -2.817857 -0.200204 -20.783241 -12.215094 -7.424486 0.000000 0.000000 0.000000 7.052990 2.127539 0.515821 6.184827 -25.737505 -8.719589 0.000000 0.000000 0.000000 -25.567741 -5.399186 -37.802911 -0.000005 -43.339285 -0.000002 0.000000 0.000000 0.000000 7.052990 2.127539 0.515821 0.371332 27.275244 10.690509 0.000000 0.000000 0.000000 -37.139150 46.241945 12.993745 -0.000001 25.612269 0.000008 0.000000 0.000000 0.000000 
